<svg version="1.2" baseProfile="tiny-ps" xmlns="http://www.w3.org/2000/svg" viewBox="0 0 1297 321" width="404" height="100">
	<title>store predictor logo-pdf</title>

	<defs>
		<clipPath clipPathUnits="userSpaceOnUse" id="cp1">
			<path d="M0 0L1297 0L1297 321L0 321Z" />
		</clipPath>
	</defs>
	<style>
		tspan { white-space:pre }
		.shp0 { fill: #142f6c }

	</style>
	<g id="Page 1" clip-path="url(#cp1)">
		<path id="Path 1" fill-rule="evenodd" class="shp0" d="M250.88 172.06L47.77 172.06L47.77 150.63L251.05 150.63C253.67 150.63 256.16 150.14 258.52 149.16C260.88 148.17 262.91 146.87 264.61 145.23C266.31 143.59 267.66 141.66 268.64 139.43C269.62 137.2 270.12 134.84 270.12 132.35C270.12 127.24 268.28 122.95 264.61 119.47C260.94 116 256.55 114.26 251.44 114.26L89.05 114.26C83.94 114.26 78.93 113.28 74.01 111.31C69.1 109.35 64.71 106.6 60.84 103.06C56.98 99.52 53.86 95.36 51.5 90.57C49.15 85.79 47.97 80.58 47.97 74.94L47.97 74.16C47.97 68.65 49.11 63.51 51.4 58.72C53.69 53.94 56.74 49.78 60.54 46.24C64.33 42.7 68.72 39.92 73.7 37.89C78.67 35.86 83.91 34.84 89.41 34.84L453.14 34.84L453.14 56.46L341.68 56.46L341.68 172.45L319.26 172.45L319.26 56.46L89.61 56.27C86.86 56.14 84.34 56.5 82.05 57.35C79.76 58.21 77.73 59.47 75.97 61.11C74.2 62.76 72.83 64.7 71.85 66.94C70.87 69.18 70.38 71.56 70.38 74.06C70.38 76.56 70.87 78.93 71.85 81.17C72.83 83.42 74.17 85.36 75.87 87.01C77.57 88.65 79.6 89.97 81.96 90.96C84.31 91.95 86.8 92.44 89.41 92.44L251.12 92.44C256.35 92.44 261.45 93.49 266.43 95.59C271.4 97.68 275.81 100.5 279.67 104.04C283.53 107.58 286.64 111.78 289 116.62C291.35 121.47 292.53 126.65 292.53 132.15C292.53 137.66 291.45 142.8 289.29 147.59C287.12 152.37 284.14 156.6 280.35 160.27C276.55 163.94 272.13 166.82 267.09 168.92C262.05 171.01 256.65 172.06 250.88 172.06ZM702.62 162.13C699.08 165.48 694.95 168.1 690.23 170C685.52 171.9 680.53 172.85 675.29 172.85L507.6 172.85C502.22 172.85 497.21 171.9 492.56 170C487.91 168.1 483.81 165.48 480.27 162.13C476.73 158.79 473.95 154.89 471.92 150.44C469.88 145.98 468.87 141.2 468.87 136.08L468.87 71.6C468.87 66.49 469.88 61.71 471.92 57.25C473.95 52.8 476.73 48.9 480.27 45.55C483.81 42.21 487.91 39.59 492.56 37.69C497.21 35.79 502.22 34.84 507.6 34.84L675.29 34.84C680.53 34.84 685.52 35.79 690.23 37.69C694.95 39.59 699.08 42.21 702.62 45.55C706.16 48.9 708.94 52.8 710.97 57.25C713 61.71 714.02 66.49 714.02 71.6L714.02 136.08C714.02 141.2 713 145.98 710.97 150.44C708.94 154.89 706.16 158.79 702.62 162.13ZM691.61 71.24C691.61 69.27 691.18 67.37 690.33 65.53C689.48 63.69 688.3 62.08 686.79 60.7C685.29 59.33 683.55 58.24 681.58 57.45C679.62 56.66 677.45 56.27 675.1 56.27L507.4 56.27C505.04 56.27 502.88 56.66 500.91 57.45C498.95 58.24 497.21 59.33 495.7 60.7C494.2 62.08 493.02 63.69 492.17 65.53C491.31 67.37 490.89 69.27 490.89 71.24L490.89 135.86C490.89 137.83 491.31 139.74 492.17 141.57C493.02 143.41 494.2 145.02 495.7 146.4C497.21 147.78 498.95 148.89 500.91 149.75C502.88 150.6 505.04 151.03 507.4 151.03L675.1 151.03C677.45 151.03 679.62 150.6 681.58 149.75C683.55 148.89 685.29 147.78 686.79 146.4C688.3 145.02 689.48 143.41 690.33 141.57C691.18 139.74 691.61 137.83 691.61 135.86L691.61 71.24ZM943.44 56.66L737.61 56.66L737.61 35.23L940.89 35.23C947.31 35.23 953.14 36.38 958.39 38.66C963.63 40.95 968.05 44.02 971.66 47.88C975.26 51.74 978.01 56.09 979.91 60.92C981.81 65.76 982.76 70.7 982.76 75.73C982.76 80.76 981.68 85.73 979.52 90.63C977.36 95.54 974.04 99.89 969.59 103.68C965.66 107.21 961.36 109.85 956.71 111.62C952.06 113.38 946.79 114.33 940.89 114.46L940.1 114.46L990.23 172.65L963.69 172.65L911.4 114.66L760.22 114.66L760.22 172.65L737.81 172.65L737.81 93.23L943.44 93.23C948.16 92.57 952.22 90.54 955.63 87.13C959.04 83.73 960.74 79.66 960.74 74.95C960.74 70.23 959.04 66.13 955.63 62.66C952.22 59.19 948.16 57.19 943.44 56.66ZM1003.99 150.83L1249.34 150.83L1249.34 172.45L1003.99 172.45L1003.99 150.83ZM1237.55 114.07L1003.99 114.07L1003.99 92.83L1237.55 92.83L1237.55 114.07ZM1249.34 34.64L1249.34 56.07L1003.99 56.07L1003.99 34.45L1249.34 34.64ZM190.53 218.89C191.84 221.76 192.5 224.86 192.5 228.19C192.5 231.6 191.86 234.74 190.58 237.61C189.31 240.48 187.54 242.96 185.29 245.05C183.04 247.14 180.43 248.79 177.45 249.99C174.46 251.19 171.3 251.79 167.97 251.79L61.02 251.79L61.02 286.09L47.77 286.09L47.77 239.12L168.09 239.12C169.64 239.12 171.13 238.83 172.56 238.25C174 237.67 175.24 236.89 176.28 235.92C177.33 234.96 178.16 233.81 178.78 232.49C179.4 231.18 179.71 229.78 179.71 228.31C179.71 226.84 179.4 225.44 178.78 224.12C178.16 222.81 177.33 221.66 176.28 220.69C175.24 219.73 174 218.97 172.56 218.43C171.13 217.89 169.64 217.61 168.09 217.61L47.77 217.61L47.77 204.94L167.97 204.94C171.3 204.94 174.44 205.52 177.39 206.69C180.33 207.85 182.93 209.46 185.18 211.51C187.42 213.56 189.21 216.03 190.53 218.89ZM322.7 252.02L352.35 286.43L336.65 286.43L305.73 252.14L216.33 252.14L216.33 286.43L203.08 286.43L203.08 239.47L324.68 239.47C327.47 239.08 329.87 237.88 331.89 235.87C333.9 233.85 334.91 231.45 334.91 228.66C334.91 225.87 333.9 223.45 331.89 221.39C329.87 219.34 327.47 218.16 324.68 217.85L202.97 217.85L202.97 205.17L323.17 205.17C326.97 205.17 330.41 205.85 333.52 207.2C336.62 208.56 339.23 210.37 341.36 212.65C343.49 214.94 345.12 217.51 346.25 220.37C347.37 223.23 347.93 226.15 347.93 229.12C347.93 232.1 347.29 235.03 346.01 237.93C344.73 240.83 342.78 243.4 340.14 245.65C337.82 247.73 335.28 249.3 332.53 250.34C329.78 251.39 326.66 251.95 323.17 252.02L322.7 252.02ZM498.59 251.79L360.48 251.79L360.48 239.24L498.59 239.24L498.59 251.79ZM360.49 273.53L505.57 273.53L505.57 286.32L360.49 286.32L360.49 273.53ZM360.49 204.71L505.57 204.82L505.57 217.5L360.49 217.5L360.49 204.71ZM656.29 229.88C658.57 234.8 659.72 240.05 659.72 245.63C659.72 251.37 658.55 256.69 656.23 261.61C653.9 266.54 650.78 270.84 646.87 274.52C642.96 278.2 638.4 281.09 633.21 283.18C628.02 285.27 622.59 286.32 616.94 286.32L514.87 286.32L514.87 273.65L616.82 273.65C620.77 273.65 624.53 272.95 628.1 271.55C631.66 270.15 634.78 268.19 637.46 265.67C640.13 263.14 642.26 260.17 643.85 256.75C645.44 253.34 646.23 249.61 646.23 245.57C646.23 241.77 645.48 238.18 643.97 234.8C642.45 231.42 640.38 228.45 637.75 225.89C635.11 223.32 631.99 221.3 628.39 219.83C624.78 218.35 620.93 217.61 616.82 217.61L514.87 217.61L514.87 204.94L616.94 204.94L616.94 205.06C622.75 205.06 628.25 206.12 633.44 208.25C638.64 210.39 643.17 213.29 647.05 216.97C650.92 220.65 654 224.96 656.29 229.88ZM670.18 204.94L683.55 204.94L683.55 286.32L670.18 286.32L670.18 204.94ZM931.74 204.82L931.74 217.5L865.83 217.5L865.83 286.32L852.58 286.32L852.58 217.38L736.93 217.38C733.44 217.38 730.12 217.94 726.98 219.07C723.84 220.2 720.99 221.77 718.43 223.79C715.87 225.81 713.7 228.18 711.91 230.89C710.13 233.61 708.89 236.52 708.19 239.63L707.84 241.26C707.69 241.88 707.57 242.54 707.49 243.24C707.41 243.94 707.34 244.72 707.26 245.57C707.26 249.22 708.02 252.73 709.53 256.11C711.04 259.49 713.09 262.49 715.69 265.09C718.28 267.69 721.38 269.76 724.99 271.32C728.59 272.87 732.49 273.65 736.67 273.65L839.09 273.65L839.09 286.32L736.67 286.32C730.94 286.32 725.47 285.27 720.28 283.18C715.09 281.09 710.54 278.2 706.65 274.52C702.76 270.84 699.67 266.54 697.41 261.61C695.14 256.69 694.01 251.37 694.01 245.63L694.01 245.28C694.01 239.62 695.19 234.33 697.55 229.41C699.92 224.49 703.06 220.21 706.97 216.57C710.88 212.92 715.42 210.08 720.57 208.02C725.73 205.97 731.09 204.94 736.67 204.94L759.46 204.94C768.37 204.94 778 204.92 788.35 204.88C798.69 204.85 809.41 204.82 820.49 204.82L931.74 204.82Z" />
		<path id="Path 2" fill-rule="evenodd" class="shp0" d="M1084.21 218.2C1085.41 220.83 1086.01 223.66 1086.01 226.68L1086.01 264.81C1086.01 267.84 1085.41 270.66 1084.21 273.3C1083 275.93 1081.36 278.24 1079.27 280.22C1077.17 282.19 1074.73 283.74 1071.94 284.87C1069.15 285.99 1066.21 286.55 1063.11 286.55L963.94 286.55C960.77 286.55 957.8 285.99 955.05 284.87C952.3 283.74 949.88 282.19 947.78 280.22C945.69 278.24 944.04 275.93 942.84 273.3C941.64 270.66 941.04 267.84 941.04 264.81L941.04 226.68C941.04 223.66 941.64 220.83 942.84 218.2C944.04 215.56 945.69 213.25 947.78 211.28C949.88 209.3 952.3 207.75 955.05 206.63C957.8 205.51 960.77 204.94 963.94 204.94L1063.11 204.94C1066.21 204.94 1069.15 205.51 1071.94 206.63C1074.73 207.75 1077.17 209.3 1079.27 211.28C1081.36 213.25 1083 215.56 1084.21 218.2ZM1072.76 226.47C1072.76 225.3 1072.5 224.18 1072 223.09C1071.49 222 1070.8 221.05 1069.91 220.23C1069.02 219.42 1067.99 218.78 1066.83 218.31C1065.66 217.85 1064.39 217.61 1062.99 217.61L963.83 217.61C962.43 217.61 961.15 217.85 959.99 218.31C958.83 218.78 957.8 219.42 956.91 220.23C956.02 221.05 955.32 222 954.82 223.09C954.31 224.18 954.06 225.3 954.06 226.47L954.06 264.68C954.06 265.84 954.31 266.97 954.82 268.06C955.32 269.14 956.02 270.09 956.91 270.91C957.8 271.73 958.83 272.38 959.99 272.89C961.15 273.4 962.43 273.65 963.83 273.65L1062.99 273.65C1064.39 273.65 1065.66 273.4 1066.83 272.89C1067.99 272.38 1069.02 271.73 1069.91 270.91C1070.8 270.09 1071.49 269.14 1072 268.06C1072.5 266.97 1072.76 265.84 1072.76 264.68L1072.76 226.47ZM1219.7 252.02L1249.34 286.43L1233.65 286.43L1202.73 252.14L1113.33 252.14L1113.33 286.43L1100.08 286.43L1100.08 239.47L1221.68 239.47C1224.46 239.08 1226.87 237.88 1228.88 235.87C1230.9 233.85 1231.91 231.45 1231.91 228.66C1231.91 225.87 1230.9 223.45 1228.88 221.39C1226.87 219.34 1224.46 218.16 1221.68 217.85L1099.96 217.85L1099.96 205.17L1220.16 205.17C1223.96 205.17 1227.41 205.85 1230.51 207.2C1233.61 208.56 1236.23 210.37 1238.36 212.65C1240.49 214.94 1242.12 217.51 1243.24 220.37C1244.36 223.23 1244.93 226.15 1244.93 229.12C1244.93 232.1 1244.29 235.03 1243.01 237.93C1241.73 240.83 1239.77 243.4 1237.14 245.65C1234.81 247.73 1232.27 249.3 1229.52 250.34C1226.77 251.39 1223.65 251.95 1220.16 252.02L1219.7 252.02Z" />
	</g>
</svg>

