<?xml version="1.0" standalone="no"?>
<!DOCTYPE svg PUBLIC "-//W3C//DTD SVG 20010904//EN"
 "http://www.w3.org/TR/2001/REC-SVG-20010904/DTD/svg10.dtd">
<svg version="1.0" xmlns="http://www.w3.org/2000/svg"
 width="208.000000pt" height="208.000000pt" viewBox="0 0 208.000000 208.000000"
 preserveAspectRatio="xMidYMid meet">
<metadata>
Created by potrace 1.14, written by Peter Selinger 2001-2017
</metadata>
<g transform="translate(0.000000,208.000000) scale(0.100000,-0.100000)"
fill="#000000" stroke="none">
<path d="M1225 1936 l-80 -45 -5 -838 -5 -838 -27 -3 -28 -3 0 635 c0 350 -3
636 -6 636 -3 0 -46 -21 -95 -47 l-89 -48 0 -588 0 -588 -27 3 -28 3 -5 382
-5 382 -92 -50 -93 -50 0 -285 c0 -156 -4 -284 -8 -284 -20 0 -133 114 -171
174 -63 97 -93 191 -99 311 -7 175 45 324 158 448 55 60 61 70 58 104 l-3 38
-75 -75 c-83 -82 -123 -145 -166 -260 -27 -70 -28 -85 -28 -225 -1 -144 1
-153 31 -232 106 -278 357 -453 648 -453 115 0 206 23 315 77 159 80 275 213
335 383 28 80 30 94 30 230 -1 134 -3 151 -29 220 -43 115 -83 178 -166 260
l-75 75 -3 -38 c-3 -34 2 -44 55 -100 105 -113 157 -246 162 -413 5 -172 -55
-319 -180 -446 -42 -43 -81 -78 -88 -78 -8 0 -11 213 -11 835 0 661 -3 835
-12 835 -7 0 -49 -20 -93 -44z"/>
</g>
</svg>
